<?xml version="1.0" standalone="no"?>
<!DOCTYPE svg PUBLIC "-//W3C//DTD SVG 20010904//EN"
 "http://www.w3.org/TR/2001/REC-SVG-20010904/DTD/svg10.dtd">
<svg version="1.0" xmlns="http://www.w3.org/2000/svg"
 width="1024.000000pt" height="1024.000000pt" viewBox="0 0 1024.000000 1024.000000"
 preserveAspectRatio="xMidYMid meet">
<metadata>
Created by potrace 1.11, written by Peter Selinger 2001-2013
</metadata>
<g transform="translate(0.000000,1024.000000) scale(0.100000,-0.100000)"
fill="#000000" stroke="none">
<path d="M0 5120 l0 -5120 5120 0 5120 0 0 5120 0 5120 -5120 0 -5120 0 0
-5120z m5357 2910 c389 -30 723 -121 1068 -290 197 -96 328 -176 481 -292 105
-80 217 -175 222 -189 2 -5 -16 -9 -40 -9 -39 0 -52 8 -143 81 -400 325 -867
530 -1395 610 -175 27 -548 32 -720 11 -460 -57 -881 -213 -1260 -465 -100
-67 -283 -208 -295 -228 -4 -5 -30 -9 -58 -9 l-52 1 57 53 c76 72 271 218 388
291 421 261 845 396 1375 438 89 8 257 6 372 -3z m2763 -2174 c0 -1539 -1
-1554 -82 -1806 -43 -133 -88 -214 -178 -323 -186 -222 -408 -365 -697 -448
-166 -47 -433 -64 -604 -38 -356 53 -670 223 -842 454 -148 199 -237 464 -254
758 l-6 107 531 0 531 0 6 -57 c20 -174 46 -250 109 -321 53 -58 106 -76 209
-70 137 7 202 58 250 198 l22 65 3 978 3 977 -261 0 -260 0 0 435 0 435 760 0
760 0 0 -1344z m-4180 1312 c393 -65 617 -180 828 -426 175 -204 283 -474 313
-785 62 -642 -300 -1210 -865 -1354 -56 -14 -103 -27 -105 -29 -2 -1 236 -305
528 -673 292 -369 531 -673 531 -676 0 -3 -260 -4 -577 -3 l-577 3 -702 980
c-387 539 -703 983 -703 988 -1 4 182 7 407 7 567 0 678 12 827 85 217 106
315 349 253 630 -42 192 -191 319 -437 373 -66 14 -170 16 -796 19 -396 1
-726 3 -732 3 -10 0 -13 95 -13 441 l0 440 863 -4 c716 -3 878 -7 957 -19z
m-1413 -935 c-3 -10 -24 -67 -47 -128 -206 -543 -233 -1164 -75 -1738 131
-481 375 -897 734 -1258 441 -443 979 -713 1611 -810 193 -30 581 -33 765 -5
354 52 593 125 890 270 306 151 540 321 789 576 72 72 139 136 150 140 12 5
38 16 60 25 l38 16 -22 -30 c-29 -41 -195 -224 -256 -282 -330 -314 -765 -564
-1198 -689 -887 -256 -1834 -82 -2566 471 -695 525 -1115 1314 -1159 2174 -21
417 42 816 190 1205 30 79 31 80 66 80 29 0 34 -3 30 -17z"/>
</g>
</svg>
